<svg width="40" height="39" viewBox="0 0 40 39" fill="none" xmlns="http://www.w3.org/2000/svg">
<path d="M35.2563 19.5741C35.6002 18.6468 35.7982 17.6479 35.7982 16.6C35.7982 12.5779 33.022 9.21075 29.2814 8.29085C28.2497 3.92341 24.3363 0.669464 19.6534 0.669464C14.9704 0.669464 11.057 3.92341 10.0254 8.29085C6.28612 9.21075 3.5085 12.5779 3.5085 16.6C3.5085 17.6479 3.70504 18.6453 4.04886 19.5741C1.59725 21.3752 0 24.272 0 27.5498C0 33.0187 4.43145 37.4517 9.90189 37.4517C11.2877 37.4517 12.6066 37.1659 13.8034 36.6509C15.0165 37.681 16.5036 38.3925 18.138 38.6694V33.909L11.2758 27.0437C10.6834 26.4528 10.6834 25.4941 11.2758 24.9032C11.8668 24.3107 12.8255 24.3107 13.4164 24.9032L18.1381 29.6234V24.4239L13.4314 19.7171C12.9923 19.2765 12.9923 18.565 13.4314 18.1259C13.8704 17.6868 14.5835 17.6868 15.0212 18.1259L18.1382 21.2414V15.5328C18.1382 14.6962 18.817 14.0189 19.6536 14.0189C20.4901 14.0189 21.1689 14.6961 21.1689 15.5328V21.2414L24.2859 18.1259C24.7236 17.6868 25.4366 17.6868 25.8757 18.1259C26.3149 18.565 26.3148 19.2765 25.8757 19.7171L21.169 24.4239V29.6234L25.8907 24.9032C26.4816 24.3107 27.4403 24.3107 28.0313 24.9032C28.6237 25.4941 28.6237 26.4528 28.0313 27.0437L21.1691 33.909V38.6694C22.8035 38.3926 24.2906 37.681 25.5037 36.6524C26.7006 37.166 28.0179 37.4518 29.4038 37.4518C34.8742 37.4518 39.3071 33.0189 39.3071 27.5499C39.3067 24.2719 37.7095 21.3752 35.2563 19.5741Z" fill="#2E7D64"/>
</svg>
